<svg xmlns="http://www.w3.org/2000/svg" width="34" height="34" viewBox="0 0 34 34"><defs><style>.a{fill:none;}.b{fill:#1ab374;}</style></defs><rect class="a" width="34" height="34"/><rect class="a" width="34" height="34"/><g transform="translate(4.25 4.25)"><path class="b" d="M22.833,14.333v-8.5A2.842,2.842,0,0,0,20,3H11.5A2.842,2.842,0,0,0,8.667,5.833V8.667H5.833A2.842,2.842,0,0,0,3,11.5V25.667A2.842,2.842,0,0,0,5.833,28.5h7.083a1.421,1.421,0,0,0,1.417-1.417v-4.25h2.833v4.25A1.421,1.421,0,0,0,18.583,28.5h7.083A2.842,2.842,0,0,0,28.5,25.667v-8.5a2.842,2.842,0,0,0-2.833-2.833ZM8.667,25.667H5.833V22.833H8.667Zm0-5.667H5.833V17.167H8.667Zm0-5.667H5.833V11.5H8.667ZM14.333,20H11.5V17.167h2.833Zm0-5.667H11.5V11.5h2.833Zm0-5.667H11.5V5.833h2.833ZM20,20H17.167V17.167H20Zm0-5.667H17.167V11.5H20Zm0-5.667H17.167V5.833H20Zm5.667,17H22.833V22.833h2.833Zm0-5.667H22.833V17.167h2.833Z" transform="translate(-3 -3)"/></g></svg>