<svg xmlns="http://www.w3.org/2000/svg" width="24.375" height="22.5" viewBox="0 0 24.375 22.5"><defs><style>.a{fill:#1b27af;}</style></defs><g transform="translate(-3.375 -4.5)"><path class="a" d="M25.406,6.75H23.063V8.131a.466.466,0,0,1-.469.46h-.937a.466.466,0,0,1-.469-.46V6.75H9.938V8.131a.466.466,0,0,1-.469.46H8.531a.466.466,0,0,1-.469-.46V6.75H5.719a2.33,2.33,0,0,0-2.344,2.3V24.7A2.33,2.33,0,0,0,5.719,27H25.406a2.33,2.33,0,0,0,2.344-2.3V9.051A2.33,2.33,0,0,0,25.406,6.75Zm.469,17.259A1.165,1.165,0,0,1,24.7,25.159H6.422A1.165,1.165,0,0,1,5.25,24.009V13.653a.466.466,0,0,1,.469-.46H25.406a.466.466,0,0,1,.469.46Z"/><path d="M11.25,5.063a.564.564,0,0,0-.562-.562H9.563A.564.564,0,0,0,9,5.063V6.75h2.25Z" transform="translate(-1.016)"/><path d="M27,5.063a.564.564,0,0,0-.562-.562H25.313a.564.564,0,0,0-.562.563V6.75H27Z" transform="translate(-3.859)"/></g></svg>