<svg xmlns="http://www.w3.org/2000/svg" width="34.627" height="34.627" viewBox="0 0 34.627 34.627"><defs><style>.a{fill:none;}</style></defs><path class="a" d="M0,0H34.627V34.627H0Z"/><g transform="translate(4.328 4.328)"><path d="M5.886,5.886h8.657a1.447,1.447,0,0,0,1.443-1.443h0A1.447,1.447,0,0,0,14.542,3H5.886A2.894,2.894,0,0,0,3,5.886v20.2A2.894,2.894,0,0,0,5.886,28.97h8.657a1.447,1.447,0,0,0,1.443-1.443h0a1.447,1.447,0,0,0-1.443-1.443H5.886Z" transform="translate(-3 -3)"/><path d="M25.808,12.952,21.783,8.927a.723.723,0,0,0-1.241.5v2.583h-10.1A1.447,1.447,0,0,0,9,13.457H9A1.447,1.447,0,0,0,10.443,14.9h10.1v2.583a.714.714,0,0,0,1.226.5l4.025-4.025A.71.71,0,0,0,25.808,12.952Z" transform="translate(-0.343 -0.472)"/></g></svg>